<svg version="1.1" xmlns="http://www.w3.org/2000/svg" xmlns:xlink="http://www.w3.org/1999/xlink" x="0px" y="0px" viewBox="0 0 338.4 133.86" style="enable-background:new 0 0 338.4 133.86;" xml:space="preserve">
<style type="text/css">
	.st0{display:none;}
	.st1{display:inline;fill:url(#SVGID_1_);}
	.st2{fill:url(#SVGID_2_);}
	.st3{fill:url(#SVGID_3_);}
	.st4{fill:url(#SVGID_4_);}
	.st5{fill:url(#SVGID_5_);}
	.st6{fill:url(#SVGID_6_);}
	.st7{fill:url(#SVGID_7_);}
	.st8{fill:url(#SVGID_8_);}
	.st9{fill:url(#SVGID_9_);}
	.st10{fill:url(#SVGID_10_);}
	.st11{fill:url(#SVGID_11_);}
	.st12{fill:url(#SVGID_12_);}
	.st13{fill:url(#SVGID_13_);}
	.st14{fill:url(#SVGID_14_);}
	.st15{fill:url(#SVGID_15_);}
	.st16{fill:url(#SVGID_16_);}
	.st17{fill:url(#SVGID_17_);}
	.st18{fill:url(#SVGID_18_);}
	.st19{fill:url(#SVGID_19_);}
	.st20{fill:url(#SVGID_20_);}
	.st21{fill:url(#SVGID_21_);}
	.st22{fill:url(#SVGID_22_);}
	.st23{fill:url(#SVGID_23_);}
	.st24{fill:url(#SVGID_24_);}
	.st25{fill:url(#SVGID_25_);}
	.st26{fill:url(#SVGID_26_);}
	.st27{fill:url(#SVGID_27_);}
	.st28{fill:url(#SVGID_28_);}
	.st29{fill:url(#SVGID_29_);}
	.st30{fill:url(#SVGID_30_);}
	.st31{fill:url(#SVGID_31_);}
	.st32{fill:url(#SVGID_32_);}
	.st33{fill:url(#SVGID_33_);}
	.st34{fill:url(#SVGID_34_);}
	.st35{fill:url(#SVGID_35_);}
	.st36{fill:url(#SVGID_36_);}
	.st37{fill:url(#SVGID_37_);}
	.st38{fill:url(#SVGID_38_);}
	.st39{fill:url(#SVGID_39_);}
	.st40{fill:url(#SVGID_40_);}
	.st41{fill:url(#SVGID_41_);}
	.st42{fill:url(#SVGID_42_);}
	.st43{fill:url(#SVGID_43_);}
	.st44{fill:url(#SVGID_44_);}
	.st45{fill:url(#SVGID_45_);}
	.st46{fill:url(#SVGID_46_);}
	.st47{fill:url(#SVGID_47_);}
	.st48{fill:url(#SVGID_48_);}
	.st49{fill:url(#SVGID_49_);}
	.st50{fill:url(#SVGID_50_);}
	.st51{fill:url(#SVGID_51_);}
	.st52{fill:url(#SVGID_52_);}
	.st53{fill:url(#SVGID_53_);}
	.st54{fill:url(#SVGID_54_);}
	.st55{fill:url(#SVGID_55_);}
</style>
<g id="BACKGROUND" class="st0">
	
		<radialGradient id="SVGID_1_" cx="231.9135" cy="222.7715" r="279.9875" gradientTransform="matrix(3.84 0 0 2.16 -658.6343 -258.415)" gradientUnits="userSpaceOnUse">
		<stop offset="0" style="stop-color:#FBFBFB"></stop>
		<stop offset="0.4598" style="stop-color:#F9F8FA"></stop>
		<stop offset="0.8223" style="stop-color:#F3EEF7"></stop>
		<stop offset="1" style="stop-color:#EEE6F5"></stop>
	</radialGradient>
	<rect x="-728.09" y="-317.23" class="st1" width="1920" height="1080"></rect>
</g>
<g id="OBJECTS">
	<linearGradient id="SVGID_2_" gradientUnits="userSpaceOnUse" x1="56.1624" y1="92.6277" x2="338.3954" y2="92.6277">
		<stop offset="0" style="stop-color:#E23D21"></stop>
		<stop offset="0.4778" style="stop-color:#F16522"></stop>
		<stop offset="1" style="stop-color:#FAAF40"></stop>
	</linearGradient>
	<path class="st2" d="M337.67,91.87H56.89c-0.4,0-0.73,0.34-0.73,0.76l0,0c0,0.42,0.33,0.76,0.73,0.76h280.78
		c0.4,0,0.73-0.34,0.73-0.76l0,0C338.4,92.21,338.07,91.87,337.67,91.87z"></path>
	<g>
		<linearGradient id="SVGID_3_" gradientUnits="userSpaceOnUse" x1="59.9711" y1="77.1644" x2="282.6419" y2="77.1644">
			<stop offset="0" style="stop-color:#1B1464"></stop>
			<stop offset="1" style="stop-color:#667EEA"></stop>
		</linearGradient>
		<path class="st3" d="M56.16,77.18c0-1.34,0.22-2.64,0.67-3.9c0.44-1.25,1.08-2.36,1.91-3.33c0.83-0.97,1.83-1.74,2.99-2.32
			c1.16-0.58,2.46-0.87,3.9-0.87h10.26v3.66H65.74c-0.57,0-1.17,0.19-1.81,0.56c-0.64,0.38-1.23,0.88-1.76,1.52
			c-0.54,0.64-0.98,1.36-1.33,2.17c-0.35,0.81-0.53,1.64-0.53,2.48c0,0.84,0.17,1.67,0.51,2.48c0.34,0.81,0.78,1.53,1.32,2.17
			c0.54,0.64,1.14,1.15,1.81,1.54c0.67,0.39,1.34,0.58,2,0.58h9.95v3.66H65.53c-1.5,0-2.84-0.31-4-0.94
			c-1.16-0.63-2.14-1.44-2.94-2.44c-0.8-1-1.4-2.12-1.81-3.35C56.37,79.61,56.16,78.39,56.16,77.18z"></path>
		<linearGradient id="SVGID_4_" gradientUnits="userSpaceOnUse" x1="59.9711" y1="77.1815" x2="282.6419" y2="77.1815">
			<stop offset="0" style="stop-color:#1B1464"></stop>
			<stop offset="1" style="stop-color:#667EEA"></stop>
		</linearGradient>
		<path class="st4" d="M78.79,77.28c0-1.57,0.3-3.05,0.89-4.44c0.59-1.39,1.4-2.6,2.43-3.62c1.03-1.03,2.22-1.84,3.59-2.44
			c1.37-0.6,2.84-0.91,4.41-0.91c1.62,0,3.12,0.3,4.5,0.89c1.38,0.59,2.58,1.4,3.59,2.43c1.01,1.03,1.81,2.23,2.38,3.62
			c0.57,1.39,0.85,2.88,0.85,4.48c0,1.6-0.29,3.08-0.87,4.44c-0.58,1.37-1.38,2.55-2.39,3.56c-1.01,1-2.21,1.79-3.59,2.36
			c-1.38,0.57-2.87,0.85-4.46,0.85c-1.57,0-3.04-0.29-4.41-0.85c-1.37-0.57-2.56-1.36-3.59-2.36c-1.03-1-1.83-2.19-2.43-3.56
			C79.09,80.36,78.79,78.88,78.79,77.28z M83,77.28c0,0.96,0.19,1.86,0.56,2.72c0.38,0.85,0.88,1.6,1.52,2.22
			c0.64,0.63,1.38,1.13,2.24,1.5c0.85,0.38,1.76,0.56,2.72,0.56c0.98,0,1.91-0.18,2.79-0.53c0.88-0.35,1.65-0.84,2.31-1.45
			c0.66-0.62,1.18-1.35,1.56-2.21s0.56-1.79,0.56-2.82c0-0.96-0.18-1.87-0.55-2.75c-0.36-0.88-0.87-1.65-1.5-2.31
			c-0.64-0.66-1.39-1.18-2.26-1.57c-0.87-0.39-1.81-0.58-2.84-0.58c-0.98,0-1.9,0.19-2.77,0.58c-0.87,0.39-1.62,0.92-2.26,1.59
			c-0.64,0.67-1.15,1.44-1.52,2.31C83.19,75.42,83,76.33,83,77.28z"></path>
		<linearGradient id="SVGID_5_" gradientUnits="userSpaceOnUse" x1="59.9711" y1="77.1644" x2="282.6419" y2="77.1644">
			<stop offset="0" style="stop-color:#1B1464"></stop>
			<stop offset="1" style="stop-color:#667EEA"></stop>
		</linearGradient>
		<path class="st5" d="M104.33,70.41v-3.66h10.87c1.57,0,2.99,0.27,4.24,0.82c1.25,0.55,2.32,1.29,3.21,2.22
			c0.89,0.93,1.57,2.03,2.03,3.3c0.47,1.27,0.7,2.63,0.7,4.09c0,1.21-0.2,2.43-0.62,3.66c-0.41,1.23-1.01,2.35-1.81,3.35
			c-0.8,1-1.77,1.82-2.92,2.44c-1.15,0.63-2.48,0.94-3.98,0.94h-11.73v-13.5h4.51v9.85h6.77c0.66,0,1.33-0.19,2-0.58
			c0.67-0.39,1.28-0.9,1.81-1.54c0.54-0.64,0.97-1.36,1.32-2.17c0.34-0.81,0.51-1.64,0.51-2.48c0-0.82-0.19-1.63-0.58-2.43
			c-0.39-0.8-0.86-1.52-1.42-2.15c-0.56-0.64-1.15-1.16-1.76-1.56c-0.62-0.4-1.16-0.6-1.64-0.6H104.33z"></path>
		<g>
			<linearGradient id="SVGID_6_" gradientUnits="userSpaceOnUse" x1="59.9711" y1="68.5832" x2="282.6419" y2="68.5832">
				<stop offset="0" style="stop-color:#1B1464"></stop>
				<stop offset="1" style="stop-color:#667EEA"></stop>
			</linearGradient>
			<rect x="128.3" y="66.75" class="st6" width="16.82" height="3.66"></rect>
			<linearGradient id="SVGID_7_" gradientUnits="userSpaceOnUse" x1="59.9711" y1="77.1815" x2="282.6419" y2="77.1815">
				<stop offset="0" style="stop-color:#1B1464"></stop>
				<stop offset="1" style="stop-color:#667EEA"></stop>
			</linearGradient>
			<rect x="128.27" y="75.34" class="st7" width="16.82" height="3.69"></rect>
			<linearGradient id="SVGID_8_" gradientUnits="userSpaceOnUse" x1="59.9711" y1="85.7455" x2="282.6419" y2="85.7455">
				<stop offset="0" style="stop-color:#1B1464"></stop>
				<stop offset="1" style="stop-color:#667EEA"></stop>
			</linearGradient>
			<rect x="128.3" y="83.92" class="st8" width="16.82" height="3.66"></rect>
		</g>
		<linearGradient id="SVGID_9_" gradientUnits="userSpaceOnUse" x1="59.9711" y1="77.1644" x2="282.6419" y2="77.1644">
			<stop offset="0" style="stop-color:#1B1464"></stop>
			<stop offset="1" style="stop-color:#667EEA"></stop>
		</linearGradient>
		<path class="st9" d="M148.54,66.75h12.41c1.05,0,1.97,0.19,2.75,0.56c0.79,0.38,1.44,0.88,1.95,1.5c0.51,0.63,0.89,1.34,1.15,2.14
			c0.25,0.8,0.38,1.62,0.38,2.46c0,1.62-0.32,3-0.96,4.15c-0.64,1.15-1.66,1.92-3.08,2.31l5.95,7.69h-5.57l-8.89-10.74h5.88
			c0.34,0,0.67-0.11,0.97-0.34c0.31-0.23,0.57-0.51,0.79-0.84c0.22-0.33,0.39-0.68,0.51-1.06c0.12-0.38,0.19-0.71,0.19-1.01
			c0-0.23-0.05-0.51-0.15-0.84c-0.1-0.33-0.24-0.64-0.41-0.94c-0.17-0.3-0.38-0.55-0.63-0.75c-0.25-0.21-0.52-0.31-0.82-0.31h-12.41
			V66.75z"></path>
		<linearGradient id="SVGID_10_" gradientUnits="userSpaceOnUse" x1="59.9711" y1="70.5832" x2="282.6419" y2="70.5832">
			<stop offset="0" style="stop-color:#1B1464"></stop>
			<stop offset="1" style="stop-color:#667EEA"></stop>
		</linearGradient>
		<path class="st10" d="M174.83,66.75v4.62l-4.65,3.04v-7.66H174.83z"></path>
		<linearGradient id="SVGID_11_" gradientUnits="userSpaceOnUse" x1="59.9711" y1="77.1644" x2="282.6419" y2="77.1644">
			<stop offset="0" style="stop-color:#1B1464"></stop>
			<stop offset="1" style="stop-color:#667EEA"></stop>
		</linearGradient>
		<path class="st11" d="M178.31,83.92h12.65c0.27,0,0.54-0.07,0.8-0.22c0.26-0.15,0.5-0.34,0.7-0.58c0.21-0.24,0.37-0.5,0.5-0.77
			c0.13-0.27,0.19-0.55,0.19-0.82c0-0.64-0.2-1.22-0.6-1.76c-0.4-0.54-0.93-0.8-1.59-0.8h-7.15c-0.89,0-1.69-0.16-2.39-0.5
			c-0.71-0.33-1.31-0.77-1.79-1.33c-0.49-0.56-0.87-1.2-1.15-1.91s-0.41-1.46-0.41-2.24c0-0.89,0.16-1.71,0.48-2.48
			c0.32-0.76,0.76-1.42,1.32-1.97c0.56-0.55,1.22-0.98,1.98-1.3c0.76-0.32,1.59-0.48,2.48-0.48h12.82v3.66h-13.06
			c-0.27,0-0.52,0.08-0.73,0.24c-0.22,0.16-0.4,0.37-0.56,0.63c-0.16,0.26-0.28,0.54-0.36,0.84c-0.08,0.3-0.12,0.58-0.12,0.85
			c0,0.25,0.06,0.51,0.17,0.79c0.11,0.27,0.26,0.52,0.43,0.75c0.17,0.23,0.36,0.42,0.56,0.56c0.21,0.15,0.4,0.22,0.58,0.22h7.35
			c0.89,0,1.7,0.17,2.43,0.51c0.73,0.34,1.36,0.79,1.9,1.35c0.54,0.56,0.95,1.21,1.23,1.95c0.28,0.74,0.43,1.52,0.43,2.34
			c0,0.66-0.12,1.36-0.36,2.09c-0.24,0.73-0.58,1.39-1.03,1.98c-0.44,0.59-0.98,1.08-1.61,1.47c-0.63,0.39-1.33,0.58-2.1,0.58
			h-13.98V83.92z"></path>
	</g>
	<g>
		<linearGradient id="SVGID_12_" gradientUnits="userSpaceOnUse" x1="206.8776" y1="77.1644" x2="399.7152" y2="77.1644">
			<stop offset="0" style="stop-color:#E23D21"></stop>
			<stop offset="0.4778" style="stop-color:#F16522"></stop>
			<stop offset="1" style="stop-color:#FAAF40"></stop>
		</linearGradient>
		<path class="st12" d="M206.16,77.18c0-1.34,0.22-2.64,0.67-3.9c0.44-1.25,1.08-2.36,1.91-3.33c0.83-0.97,1.83-1.74,2.99-2.32
			c1.16-0.58,2.46-0.87,3.9-0.87h10.26v3.66h-10.15c-0.57,0-1.17,0.19-1.81,0.56c-0.64,0.38-1.23,0.88-1.76,1.52
			c-0.54,0.64-0.98,1.36-1.33,2.17c-0.35,0.81-0.53,1.64-0.53,2.48c0,0.84,0.17,1.67,0.51,2.48c0.34,0.81,0.78,1.53,1.32,2.17
			c0.54,0.64,1.14,1.15,1.81,1.54c0.67,0.39,1.34,0.58,2,0.58h9.95v3.66h-10.36c-1.5,0-2.84-0.31-4-0.94
			c-1.16-0.63-2.14-1.44-2.94-2.44c-0.8-1-1.4-2.12-1.81-3.35C206.36,79.61,206.16,78.39,206.16,77.18z"></path>
		<linearGradient id="SVGID_13_" gradientUnits="userSpaceOnUse" x1="206.8776" y1="77.1815" x2="399.7152" y2="77.1815">
			<stop offset="0" style="stop-color:#E23D21"></stop>
			<stop offset="0.4778" style="stop-color:#F16522"></stop>
			<stop offset="1" style="stop-color:#FAAF40"></stop>
		</linearGradient>
		<path class="st13" d="M228.79,77.28c0-1.57,0.3-3.05,0.89-4.44c0.59-1.39,1.4-2.6,2.43-3.62c1.03-1.03,2.22-1.84,3.59-2.44
			c1.37-0.6,2.84-0.91,4.41-0.91c1.62,0,3.12,0.3,4.5,0.89c1.38,0.59,2.58,1.4,3.59,2.43c1.01,1.03,1.81,2.23,2.38,3.62
			c0.57,1.39,0.85,2.88,0.85,4.48c0,1.6-0.29,3.08-0.87,4.44c-0.58,1.37-1.38,2.55-2.39,3.56c-1.01,1-2.21,1.79-3.59,2.36
			c-1.38,0.57-2.87,0.85-4.46,0.85c-1.57,0-3.04-0.29-4.41-0.85c-1.37-0.57-2.56-1.36-3.59-2.36c-1.03-1-1.83-2.19-2.43-3.56
			C229.09,80.36,228.79,78.88,228.79,77.28z M232.99,77.28c0,0.96,0.19,1.86,0.56,2.72c0.38,0.85,0.88,1.6,1.52,2.22
			c0.64,0.63,1.38,1.13,2.24,1.5c0.85,0.38,1.76,0.56,2.72,0.56c0.98,0,1.91-0.18,2.79-0.53c0.88-0.35,1.65-0.84,2.31-1.45
			c0.66-0.62,1.18-1.35,1.56-2.21c0.38-0.85,0.56-1.79,0.56-2.82c0-0.96-0.18-1.87-0.55-2.75c-0.36-0.88-0.87-1.65-1.5-2.31
			c-0.64-0.66-1.39-1.18-2.26-1.57c-0.87-0.39-1.81-0.58-2.84-0.58c-0.98,0-1.9,0.19-2.77,0.58c-0.87,0.39-1.62,0.92-2.26,1.59
			c-0.64,0.67-1.15,1.44-1.52,2.31C233.18,75.42,232.99,76.33,232.99,77.28z"></path>
		<linearGradient id="SVGID_14_" gradientUnits="userSpaceOnUse" x1="206.8776" y1="77.1644" x2="399.7152" y2="77.1644">
			<stop offset="0" style="stop-color:#E23D21"></stop>
			<stop offset="0.4778" style="stop-color:#F16522"></stop>
			<stop offset="1" style="stop-color:#FAAF40"></stop>
		</linearGradient>
		<path class="st14" d="M252.82,66.75h12.41c1.05,0,1.97,0.19,2.75,0.56c0.79,0.38,1.44,0.88,1.95,1.5
			c0.51,0.63,0.89,1.34,1.15,2.14c0.25,0.8,0.38,1.62,0.38,2.46c0,1.62-0.32,3-0.96,4.15c-0.64,1.15-1.66,1.92-3.08,2.31l5.95,7.69
			h-5.57l-8.89-10.74h5.88c0.34,0,0.67-0.11,0.97-0.34c0.31-0.23,0.57-0.51,0.79-0.84c0.22-0.33,0.39-0.68,0.51-1.06
			c0.12-0.38,0.19-0.71,0.19-1.01c0-0.23-0.05-0.51-0.15-0.84c-0.1-0.33-0.24-0.64-0.41-0.94c-0.17-0.3-0.38-0.55-0.63-0.75
			c-0.25-0.21-0.52-0.31-0.82-0.31h-12.41V66.75z"></path>
		<linearGradient id="SVGID_15_" gradientUnits="userSpaceOnUse" x1="206.8776" y1="77.1644" x2="399.7152" y2="77.1644">
			<stop offset="0" style="stop-color:#E23D21"></stop>
			<stop offset="0.4778" style="stop-color:#F16522"></stop>
			<stop offset="1" style="stop-color:#FAAF40"></stop>
		</linearGradient>
		<path class="st15" d="M274.46,66.75h4.65v3.11l2.53-3.11h6.8c1.03,0,1.9,0.15,2.62,0.46c0.72,0.31,1.31,0.73,1.78,1.26
			c0.47,0.54,0.81,1.15,1.03,1.85c0.22,0.7,0.32,1.42,0.32,2.17v15.08h-4.68V73.35c0-0.87-0.15-1.52-0.44-1.95
			c-0.3-0.43-0.93-0.65-1.91-0.65h-8.03v16.82h-4.65V66.75z"></path>
		<g>
			<linearGradient id="SVGID_16_" gradientUnits="userSpaceOnUse" x1="206.8776" y1="68.5832" x2="399.7152" y2="68.5832">
				<stop offset="0" style="stop-color:#E23D21"></stop>
				<stop offset="0.4778" style="stop-color:#F16522"></stop>
				<stop offset="1" style="stop-color:#FAAF40"></stop>
			</linearGradient>
			<rect x="297.61" y="66.75" class="st16" width="16.82" height="3.66"></rect>
			<linearGradient id="SVGID_17_" gradientUnits="userSpaceOnUse" x1="206.8776" y1="77.1815" x2="399.7152" y2="77.1815">
				<stop offset="0" style="stop-color:#E23D21"></stop>
				<stop offset="0.4778" style="stop-color:#F16522"></stop>
				<stop offset="1" style="stop-color:#FAAF40"></stop>
			</linearGradient>
			<rect x="297.61" y="75.34" class="st17" width="16.82" height="3.69"></rect>
			<linearGradient id="SVGID_18_" gradientUnits="userSpaceOnUse" x1="206.8776" y1="85.7455" x2="399.7152" y2="85.7455">
				<stop offset="0" style="stop-color:#E23D21"></stop>
				<stop offset="0.4778" style="stop-color:#F16522"></stop>
				<stop offset="1" style="stop-color:#FAAF40"></stop>
			</linearGradient>
			<rect x="297.61" y="83.92" class="st18" width="16.82" height="3.66"></rect>
		</g>
		<linearGradient id="SVGID_19_" gradientUnits="userSpaceOnUse" x1="206.8776" y1="77.1644" x2="399.7152" y2="77.1644">
			<stop offset="0" style="stop-color:#E23D21"></stop>
			<stop offset="0.4778" style="stop-color:#F16522"></stop>
			<stop offset="1" style="stop-color:#FAAF40"></stop>
		</linearGradient>
		<path class="st19" d="M317.85,66.75h12.41c1.05,0,1.97,0.19,2.75,0.56c0.79,0.38,1.44,0.88,1.95,1.5
			c0.51,0.63,0.89,1.34,1.15,2.14c0.25,0.8,0.38,1.62,0.38,2.46c0,1.62-0.32,3-0.96,4.15c-0.64,1.15-1.66,1.92-3.08,2.31l5.95,7.69
			h-5.57l-8.89-10.74h5.88c0.34,0,0.67-0.11,0.97-0.34c0.31-0.23,0.57-0.51,0.79-0.84c0.22-0.33,0.39-0.68,0.51-1.06
			c0.12-0.38,0.19-0.71,0.19-1.01c0-0.23-0.05-0.51-0.15-0.84c-0.1-0.33-0.24-0.64-0.41-0.94c-0.17-0.3-0.38-0.55-0.63-0.75
			c-0.25-0.21-0.52-0.31-0.82-0.31h-12.41V66.75z"></path>
	</g>
	<linearGradient id="SVGID_20_" gradientUnits="userSpaceOnUse" x1="2.456177e-05" y1="66.9279" x2="127.5684" y2="66.9279">
		<stop offset="0" style="stop-color:#FA71CD"></stop>
		<stop offset="1" style="stop-color:#C471F5"></stop>
	</linearGradient>
	<path class="st20" d="M73.48,124.47c-12.88,3.76-25.79,0.04-38.04-7.89C13.92,102.66,9.22,75.71,21.21,53.53
		c12.64-23.38,40.79-29.92,63.55-16.24c4.73,2.84,8.79,6.38,12.14,10.39c4.9,5.89,12.62,8.61,20.06,6.76l0.63-0.16
		c8.34-2.08,12.46-11.44,8.41-19.02c-5.83-10.9-14.76-20.34-26.42-26.86C68.56-8.91,28.87,1.35,10.12,31.52
		c-19.77,31.8-9.63,73.52,22.35,92.75c13.48,8.1,28.66,10.9,43.13,9.01c2.56-0.33,4.31-2.77,3.79-5.3l0,0
		C78.84,125.31,76.11,123.7,73.48,124.47z"></path>
	<linearGradient id="SVGID_21_" gradientUnits="userSpaceOnUse" x1="63.6529" y1="47.2174" x2="64.9511" y2="118.3589">
		<stop offset="0" style="stop-color:#FAAF40"></stop>
		<stop offset="0.5222" style="stop-color:#F16522"></stop>
		<stop offset="1" style="stop-color:#E23D21"></stop>
	</linearGradient>
	<path class="st21" d="M73.48,124.47c-12.88,3.76-25.79,0.04-38.04-7.89C13.92,102.66,9.22,75.71,21.21,53.53
		c12.64-23.38,40.79-29.92,63.55-16.24c4.73,2.84,8.79,6.38,12.14,10.39c4.9,5.89,12.62,8.61,20.06,6.76l0.63-0.16
		c8.34-2.08,12.46-11.44,8.41-19.02c-5.83-10.9-14.76-20.34-26.42-26.86C68.56-8.91,28.87,1.35,10.12,31.52
		c-19.77,31.8-9.63,73.52,22.35,92.75c13.48,8.1,28.66,10.9,43.13,9.01c2.56-0.33,4.31-2.77,3.79-5.3l0,0
		C78.84,125.31,76.11,123.7,73.48,124.47z"></path>
	<linearGradient id="SVGID_22_" gradientUnits="userSpaceOnUse" x1="8.4455" y1="108.3304" x2="91.0687" y2="25.7071">
		<stop offset="0" style="stop-color:#1B1464"></stop>
		<stop offset="1" style="stop-color:#667EEA"></stop>
	</linearGradient>
	<path class="st22" d="M18.83,53.84c13.86-22.68,43.18-30.23,65.93-16.54c4.73,2.84,8.79,6.38,12.14,10.39
		c4.9,5.89,12.62,8.61,20.06,6.76l0.63-0.16c8.34-2.08,12.46-11.44,8.41-19.02c-5.83-10.9-14.76-20.34-26.42-26.86
		C68.56-8.91,28.87,1.35,10.12,31.52c-19.77,31.8-9.63,73.52,22.35,92.75c8.93,5.37,18.61,8.4,28.34,9.29
		C4.47,123.42,8.09,71.41,18.83,53.84z"></path>
	<linearGradient id="SVGID_23_" gradientUnits="userSpaceOnUse" x1="5.236389e-03" y1="34.6322" x2="127.5632" y2="34.6322">
		<stop offset="0" style="stop-color:#FAAF40"></stop>
		<stop offset="0.5222" style="stop-color:#F16522"></stop>
		<stop offset="1" style="stop-color:#E23D21"></stop>
	</linearGradient>
	<path class="st23" d="M50.19,21.26c27.88-0.9,41.07,15.13,47.92,25.64c4.18,6.42,11.41,9.4,18.84,7.55l0.63-0.16
		c8.34-2.08,12.46-11.44,8.41-19.02c-5.83-10.9-14.76-20.34-26.42-26.86C68.56-8.91,28.87,1.35,10.11,31.52
		C2.79,43.29-0.42,56.42,0.05,69.26C-0.48,41.58,22.3,22.16,50.19,21.26z"></path>
	<linearGradient id="SVGID_24_" gradientUnits="userSpaceOnUse" x1="0.0127" y1="44.0046" x2="101.2473" y2="44.0046">
		<stop offset="0" style="stop-color:#E23D21"></stop>
		<stop offset="0.4778" style="stop-color:#F16522"></stop>
		<stop offset="1" style="stop-color:#FAAF40"></stop>
	</linearGradient>
	<path class="st24" d="M50.19,18.78C22.3,19.68-0.48,39.1,0.05,66.78c-0.01-0.4-0.01-0.8-0.02-1.2C0,66.81,0.01,68.04,0.05,69.26
		c-0.53-27.68,22.25-47.1,50.14-48.01c27.88-0.9,41.07,15.13,47.92,25.64C91.26,36.39,78.08,17.87,50.19,18.78z"></path>
	<linearGradient id="SVGID_25_" gradientUnits="userSpaceOnUse" x1="88.9955" y1="120.2212" x2="86.5457" y2="131.3678">
		<stop offset="0" style="stop-color:#FAAF40"></stop>
		<stop offset="0.5222" style="stop-color:#F16522"></stop>
		<stop offset="1" style="stop-color:#E23D21"></stop>
	</linearGradient>
	<path class="st25" d="M91.69,121.64c3.52,5.03-1.99,10.55-7.03,7.03c-0.17-0.12-0.31-0.26-0.43-0.43
		c-3.52-5.03,1.99-10.55,7.03-7.03C91.42,121.33,91.57,121.48,91.69,121.64z"></path>
	<linearGradient id="SVGID_26_" gradientUnits="userSpaceOnUse" x1="99.7884" y1="115.2289" x2="98.8091" y2="122.8184">
		<stop offset="0" style="stop-color:#FAAF40"></stop>
		<stop offset="0.5222" style="stop-color:#F16522"></stop>
		<stop offset="1" style="stop-color:#E23D21"></stop>
	</linearGradient>
	<path class="st26" d="M102.04,116.51c2.57,3.68-1.46,7.7-5.13,5.13c-0.12-0.09-0.23-0.2-0.32-0.32c-2.57-3.68,1.46-7.7,5.13-5.13
		C101.84,116.28,101.95,116.39,102.04,116.51z"></path>
	<linearGradient id="SVGID_27_" gradientUnits="userSpaceOnUse" x1="107.6746" y1="111.0645" x2="106.6949" y2="116.0855">
		<stop offset="0" style="stop-color:#FAAF40"></stop>
		<stop offset="0.5222" style="stop-color:#F16522"></stop>
		<stop offset="1" style="stop-color:#E23D21"></stop>
	</linearGradient>
	<path class="st27" d="M109.52,112.65c0.3,1.61-1.08,2.99-2.69,2.69c-0.9-0.17-1.62-0.89-1.79-1.79c-0.3-1.61,1.08-2.99,2.69-2.69
		C108.62,111.03,109.35,111.76,109.52,112.65z"></path>
	<g>
		<linearGradient id="SVGID_28_" gradientUnits="userSpaceOnUse" x1="113.1025" y1="39.523" x2="127.1378" y2="39.523">
			<stop offset="0" style="stop-color:#1B1464"></stop>
			<stop offset="1" style="stop-color:#667EEA"></stop>
		</linearGradient>
		<path class="st28" d="M120.12,32.5L120.12,32.5c-3.86,0-7.02,3.16-7.02,7.02v0c0,3.86,3.16,7.02,7.02,7.02h0
			c3.88,0,7.02-3.14,7.02-7.02v0C127.14,35.66,123.98,32.5,120.12,32.5z"></path>
		<linearGradient id="SVGID_29_" gradientUnits="userSpaceOnUse" x1="117.8784" y1="16.3081" x2="126.2403" y2="16.3081">
			<stop offset="0" style="stop-color:#1B1464"></stop>
			<stop offset="1" style="stop-color:#667EEA"></stop>
		</linearGradient>
		<path class="st29" d="M122.06,20.49L122.06,20.49c2.3,0,4.18-1.88,4.18-4.18v0c0-2.3-1.88-4.18-4.18-4.18h0
			c-2.3,0-4.18,1.88-4.18,4.18v0C117.88,18.61,119.76,20.49,122.06,20.49z"></path>
		<linearGradient id="SVGID_30_" gradientUnits="userSpaceOnUse" x1="129.6193" y1="27.1807" x2="135.5684" y2="27.1807">
			<stop offset="0" style="stop-color:#1B1464"></stop>
			<stop offset="1" style="stop-color:#667EEA"></stop>
		</linearGradient>
		<path class="st30" d="M132.59,24.2L132.59,24.2c-1.64,0-2.97,1.33-2.97,2.97v0c0,1.64,1.34,2.98,2.98,2.98h0
			c1.64,0,2.97-1.33,2.97-2.97v0C135.57,25.54,134.23,24.2,132.59,24.2z"></path>
		<linearGradient id="SVGID_31_" gradientUnits="userSpaceOnUse" x1="128.5452" y1="5.571" x2="132.3652" y2="5.571">
			<stop offset="0" style="stop-color:#1B1464"></stop>
			<stop offset="1" style="stop-color:#667EEA"></stop>
		</linearGradient>
		<path class="st31" d="M130.46,3.66L130.46,3.66c-1.06,0-1.91,0.85-1.91,1.91v0c0,1.05,0.85,1.91,1.91,1.91h0
			c1.05,0,1.91-0.85,1.91-1.91v0C132.37,4.52,131.51,3.66,130.46,3.66z"></path>
		<linearGradient id="SVGID_32_" gradientUnits="userSpaceOnUse" x1="109.3834" y1="23.8213" x2="113.2035" y2="23.8213">
			<stop offset="0" style="stop-color:#1B1464"></stop>
			<stop offset="1" style="stop-color:#667EEA"></stop>
		</linearGradient>
		<circle class="st32" cx="111.29" cy="23.82" r="1.91"></circle>
	</g>
	<linearGradient id="SVGID_33_" gradientUnits="userSpaceOnUse" x1="112.1773" y1="105.1083" x2="112.1773" y2="109.3691">
		<stop offset="0" style="stop-color:#FAAF40"></stop>
		<stop offset="0.5222" style="stop-color:#F16522"></stop>
		<stop offset="1" style="stop-color:#E23D21"></stop>
	</linearGradient>
	<circle class="st33" cx="112.18" cy="107.05" r="1.71"></circle>
	<linearGradient id="SVGID_34_" gradientUnits="userSpaceOnUse" x1="73.4722" y1="128.1056" x2="78.9295" y2="128.9279">
		<stop offset="0" style="stop-color:#E23D21"></stop>
		<stop offset="0.931" style="stop-color:#E23D21"></stop>
	</linearGradient>
	<circle class="st34" cx="74.92" cy="128.32" r="4.92"></circle>
	<g>
		<linearGradient id="SVGID_35_" gradientUnits="userSpaceOnUse" x1="34.9028" y1="102.036" x2="71.9858" y2="107.6238">
			<stop offset="0" style="stop-color:#FAAF40"></stop>
			<stop offset="0.5222" style="stop-color:#F16522"></stop>
			<stop offset="1" style="stop-color:#E23D21"></stop>
		</linearGradient>
		<path class="st35" d="M73.47,123.6c-12.88,3.76-25.79,0.04-38.04-7.89c-13.62-8.82-20.5-22.85-20.67-37.59
			c-0.34,15.34,6.54,30.1,20.67,39.24c12.25,7.93,25.16,11.65,38.04,7.89C76.1,124.49,76.1,122.84,73.47,123.6z"></path>
	</g>
	<linearGradient id="SVGID_36_" gradientUnits="userSpaceOnUse" x1="32.2548" y1="95.4291" x2="46.6526" y2="33.4909">
		<stop offset="0" style="stop-color:#667EEA"></stop>
		<stop offset="1" style="stop-color:#1B1464"></stop>
	</linearGradient>
	<path class="st36" d="M74,32.5c0,0-14.77-5.32-30.82,1.1S21.15,50.37,21.15,50.37s-15.9,20.29-4.59,51.5
		c0,0-14.54-26.77,2.69-53.11C35.98,25.35,63.78,26.86,74,32.5z"></path>
	<linearGradient id="SVGID_37_" gradientUnits="userSpaceOnUse" x1="115.3902" y1="100.66" x2="115.3902" y2="103.6255">
		<stop offset="0" style="stop-color:#FAAF40"></stop>
		<stop offset="0.5222" style="stop-color:#F16522"></stop>
		<stop offset="1" style="stop-color:#E23D21"></stop>
	</linearGradient>
	<circle class="st37" cx="115.39" cy="102.05" r="1.27"></circle>
	<g>
		<linearGradient id="SVGID_38_" gradientUnits="userSpaceOnUse" x1="178.4609" y1="102.5118" x2="381.8371" y2="102.5118">
			<stop offset="0" style="stop-color:#1B1464"></stop>
			<stop offset="1" style="stop-color:#667EEA"></stop>
		</linearGradient>
		<path class="st38" d="M184.7,106.72c0,0.05-0.01,0.09-0.03,0.13s-0.06,0.06-0.13,0.09s-0.17,0.04-0.3,0.05
			c-0.13,0.01-0.32,0.01-0.55,0.01c-0.19,0-0.35,0-0.46-0.01c-0.12-0.01-0.21-0.03-0.27-0.05c-0.07-0.03-0.11-0.06-0.14-0.1
			s-0.05-0.09-0.07-0.14l-0.8-1.99c-0.1-0.23-0.19-0.43-0.28-0.6c-0.09-0.17-0.19-0.32-0.31-0.44s-0.24-0.21-0.39-0.27
			c-0.15-0.06-0.32-0.09-0.51-0.09h-0.57v3.4c0,0.05-0.01,0.09-0.04,0.12s-0.08,0.07-0.15,0.09c-0.07,0.02-0.16,0.04-0.28,0.06
			s-0.26,0.02-0.44,0.02c-0.17,0-0.32-0.01-0.44-0.02s-0.21-0.03-0.28-0.06c-0.07-0.02-0.12-0.05-0.14-0.09s-0.04-0.08-0.04-0.12
			V98.6c0-0.2,0.05-0.35,0.16-0.44s0.23-0.13,0.38-0.13h2.31c0.23,0,0.43,0,0.58,0.01s0.29,0.02,0.41,0.03
			c0.36,0.05,0.68,0.14,0.97,0.26c0.29,0.12,0.53,0.29,0.73,0.49c0.2,0.2,0.35,0.44,0.46,0.71c0.11,0.27,0.16,0.59,0.16,0.94
			c0,0.3-0.04,0.57-0.11,0.82s-0.19,0.47-0.33,0.66c-0.15,0.19-0.33,0.36-0.55,0.5c-0.22,0.14-0.46,0.26-0.74,0.35
			c0.13,0.06,0.26,0.14,0.38,0.23c0.12,0.09,0.23,0.2,0.33,0.33s0.2,0.28,0.29,0.45c0.09,0.17,0.18,0.36,0.27,0.57l0.75,1.76
			c0.07,0.17,0.12,0.3,0.14,0.38C184.69,106.61,184.7,106.68,184.7,106.72z M182.36,100.66c0-0.29-0.07-0.54-0.2-0.75
			c-0.13-0.2-0.35-0.35-0.66-0.43c-0.09-0.02-0.2-0.04-0.31-0.06c-0.12-0.01-0.28-0.02-0.49-0.02h-0.81v2.53h0.92
			c0.26,0,0.48-0.03,0.68-0.09c0.19-0.06,0.35-0.15,0.48-0.26c0.13-0.11,0.23-0.25,0.29-0.4
			C182.33,101.03,182.36,100.86,182.36,100.66z"></path>
		<linearGradient id="SVGID_39_" gradientUnits="userSpaceOnUse" x1="178.4609" y1="102.4911" x2="381.8371" y2="102.4911">
			<stop offset="0" style="stop-color:#1B1464"></stop>
			<stop offset="1" style="stop-color:#667EEA"></stop>
		</linearGradient>
		<path class="st39" d="M191.33,106.25c0,0.13-0.01,0.24-0.02,0.33s-0.03,0.16-0.05,0.22c-0.02,0.06-0.05,0.1-0.09,0.12
			c-0.03,0.03-0.07,0.04-0.11,0.04h-4.49c-0.15,0-0.28-0.04-0.38-0.13s-0.16-0.24-0.16-0.44V98.6c0-0.2,0.05-0.35,0.16-0.44
			s0.23-0.13,0.38-0.13h4.46c0.04,0,0.08,0.01,0.11,0.03c0.03,0.02,0.06,0.06,0.08,0.12c0.02,0.06,0.04,0.13,0.05,0.22
			c0.01,0.09,0.02,0.2,0.02,0.34c0,0.13-0.01,0.24-0.02,0.33c-0.01,0.09-0.03,0.16-0.05,0.22c-0.02,0.06-0.05,0.1-0.08,0.12
			c-0.03,0.03-0.07,0.04-0.11,0.04h-3.19v2.18h2.7c0.04,0,0.08,0.01,0.11,0.04c0.03,0.03,0.06,0.06,0.09,0.12
			c0.02,0.05,0.04,0.12,0.05,0.21s0.02,0.2,0.02,0.33c0,0.13-0.01,0.24-0.02,0.33c-0.01,0.09-0.03,0.16-0.05,0.21
			c-0.02,0.05-0.05,0.09-0.09,0.11c-0.03,0.02-0.07,0.03-0.11,0.03h-2.7v2.52h3.22c0.04,0,0.08,0.01,0.11,0.04
			c0.03,0.03,0.06,0.07,0.09,0.12c0.02,0.06,0.04,0.13,0.05,0.22S191.33,106.11,191.33,106.25z"></path>
		<linearGradient id="SVGID_40_" gradientUnits="userSpaceOnUse" x1="178.4609" y1="102.4911" x2="381.8371" y2="102.4911">
			<stop offset="0" style="stop-color:#1B1464"></stop>
			<stop offset="1" style="stop-color:#667EEA"></stop>
		</linearGradient>
		<path class="st40" d="M200.07,106.28c0.06,0.17,0.09,0.3,0.1,0.39c0.01,0.1,0,0.17-0.06,0.22c-0.05,0.05-0.14,0.08-0.27,0.09
			c-0.13,0.01-0.31,0.02-0.53,0.02c-0.23,0-0.42,0-0.55-0.01c-0.13-0.01-0.23-0.02-0.3-0.04c-0.07-0.02-0.12-0.05-0.14-0.09
			s-0.05-0.09-0.07-0.14l-0.6-1.79h-3.35l-0.57,1.75c-0.02,0.06-0.04,0.12-0.07,0.16c-0.03,0.04-0.08,0.08-0.14,0.1
			c-0.07,0.03-0.16,0.04-0.28,0.05s-0.28,0.01-0.48,0.01c-0.21,0-0.38-0.01-0.5-0.02c-0.12-0.01-0.2-0.05-0.25-0.1
			s-0.06-0.13-0.05-0.22c0.01-0.1,0.05-0.23,0.1-0.39l2.75-7.92c0.03-0.08,0.06-0.14,0.1-0.19s0.1-0.09,0.18-0.11
			c0.08-0.03,0.19-0.04,0.33-0.05c0.14-0.01,0.33-0.01,0.57-0.01c0.27,0,0.49,0,0.65,0.01s0.29,0.02,0.38,0.05
			c0.09,0.03,0.15,0.06,0.19,0.11c0.04,0.05,0.07,0.12,0.1,0.21L200.07,106.28z M195.97,99.73L195.97,99.73l-1.27,3.8h2.53
			L195.97,99.73z"></path>
		<linearGradient id="SVGID_41_" gradientUnits="userSpaceOnUse" x1="178.4609" y1="102.4911" x2="381.8371" y2="102.4911">
			<stop offset="0" style="stop-color:#1B1464"></stop>
			<stop offset="1" style="stop-color:#667EEA"></stop>
		</linearGradient>
		<path class="st41" d="M208.74,102.36c0,0.82-0.11,1.52-0.32,2.1c-0.21,0.58-0.52,1.06-0.92,1.43c-0.4,0.37-0.89,0.64-1.46,0.81
			c-0.57,0.17-1.25,0.26-2.05,0.26h-2.13c-0.15,0-0.28-0.04-0.38-0.13s-0.16-0.24-0.16-0.44V98.6c0-0.2,0.05-0.35,0.16-0.44
			s0.23-0.13,0.38-0.13h2.29c0.8,0,1.47,0.09,2.03,0.28s1.02,0.46,1.4,0.83c0.38,0.37,0.67,0.82,0.87,1.36
			C208.64,101.03,208.74,101.65,208.74,102.36z M206.86,102.42c0-0.42-0.05-0.82-0.15-1.18c-0.1-0.36-0.26-0.68-0.48-0.95
			c-0.22-0.27-0.5-0.48-0.84-0.62c-0.34-0.15-0.79-0.22-1.35-0.22h-0.92v6.07h0.95c0.5,0,0.92-0.06,1.26-0.19
			c0.34-0.13,0.62-0.32,0.85-0.58c0.23-0.26,0.4-0.58,0.51-0.97S206.86,102.94,206.86,102.42z"></path>
		<linearGradient id="SVGID_42_" gradientUnits="userSpaceOnUse" x1="178.4609" y1="102.4911" x2="381.8371" y2="102.4911">
			<stop offset="0" style="stop-color:#1B1464"></stop>
			<stop offset="1" style="stop-color:#667EEA"></stop>
		</linearGradient>
		<path class="st42" d="M213.46,103.57v3.14c0,0.05-0.01,0.09-0.04,0.12s-0.08,0.07-0.15,0.09c-0.07,0.02-0.16,0.04-0.28,0.06
			c-0.12,0.01-0.26,0.02-0.44,0.02c-0.18,0-0.33-0.01-0.44-0.02s-0.21-0.03-0.28-0.06s-0.12-0.05-0.15-0.09s-0.04-0.08-0.04-0.12
			v-3.14l-2.44-4.87c-0.09-0.17-0.14-0.3-0.17-0.4s-0.01-0.17,0.04-0.21c0.05-0.05,0.15-0.08,0.29-0.09
			c0.14-0.01,0.34-0.02,0.59-0.02c0.21,0,0.38,0,0.51,0.01c0.13,0.01,0.23,0.03,0.3,0.05c0.07,0.03,0.13,0.06,0.16,0.1
			c0.03,0.04,0.07,0.09,0.1,0.16l0.99,2.19c0.1,0.21,0.19,0.43,0.29,0.67s0.19,0.48,0.29,0.74h0.01c0.09-0.25,0.18-0.49,0.27-0.72
			c0.09-0.23,0.18-0.46,0.27-0.67l0.98-2.18c0.02-0.07,0.05-0.13,0.09-0.18c0.03-0.04,0.09-0.08,0.16-0.11
			c0.07-0.03,0.16-0.05,0.28-0.06c0.12-0.01,0.28-0.01,0.48-0.01c0.26,0,0.47,0.01,0.61,0.02c0.14,0.01,0.24,0.04,0.3,0.09
			c0.05,0.05,0.07,0.12,0.04,0.22c-0.03,0.1-0.08,0.23-0.17,0.39L213.46,103.57z"></path>
		<linearGradient id="SVGID_43_" gradientUnits="userSpaceOnUse" x1="178.4609" y1="102.5118" x2="381.8371" y2="102.5118">
			<stop offset="0" style="stop-color:#1B1464"></stop>
			<stop offset="1" style="stop-color:#667EEA"></stop>
		</linearGradient>
		<path class="st43" d="M226.33,98.77c0,0.13-0.01,0.25-0.02,0.34s-0.03,0.17-0.05,0.23c-0.02,0.06-0.05,0.1-0.09,0.13
			c-0.03,0.03-0.07,0.04-0.11,0.04h-2.24v7.2c0,0.05-0.01,0.09-0.04,0.12c-0.03,0.04-0.08,0.07-0.15,0.09
			c-0.07,0.02-0.16,0.04-0.28,0.06c-0.12,0.01-0.26,0.02-0.44,0.02s-0.32-0.01-0.44-0.02c-0.12-0.01-0.21-0.03-0.28-0.06
			c-0.07-0.02-0.12-0.05-0.15-0.09s-0.04-0.08-0.04-0.12v-7.2h-2.24c-0.05,0-0.09-0.01-0.12-0.04c-0.03-0.03-0.06-0.07-0.08-0.13
			c-0.02-0.06-0.04-0.13-0.05-0.23s-0.02-0.21-0.02-0.34c0-0.14,0.01-0.26,0.02-0.35c0.01-0.1,0.03-0.17,0.05-0.23
			c0.02-0.06,0.05-0.1,0.08-0.12c0.03-0.03,0.07-0.04,0.12-0.04h6.29c0.04,0,0.08,0.01,0.11,0.04c0.03,0.03,0.06,0.07,0.09,0.12
			s0.04,0.13,0.05,0.23C226.32,98.52,226.33,98.63,226.33,98.77z"></path>
		<linearGradient id="SVGID_44_" gradientUnits="userSpaceOnUse" x1="178.4609" y1="102.4911" x2="381.8371" y2="102.4911">
			<stop offset="0" style="stop-color:#1B1464"></stop>
			<stop offset="1" style="stop-color:#667EEA"></stop>
		</linearGradient>
		<path class="st44" d="M235.04,102.39c0,0.74-0.09,1.4-0.28,1.99c-0.18,0.58-0.46,1.08-0.82,1.49s-0.81,0.72-1.35,0.93
			c-0.54,0.21-1.16,0.32-1.86,0.32c-0.69,0-1.3-0.09-1.82-0.27c-0.52-0.18-0.95-0.46-1.29-0.83c-0.35-0.37-0.6-0.85-0.78-1.42
			c-0.17-0.58-0.26-1.26-0.26-2.04c0-0.72,0.09-1.37,0.28-1.95c0.18-0.58,0.46-1.07,0.82-1.47c0.36-0.4,0.81-0.72,1.35-0.93
			s1.16-0.32,1.87-0.32c0.68,0,1.27,0.09,1.79,0.27s0.95,0.46,1.3,0.83c0.35,0.37,0.61,0.84,0.79,1.41S235.04,101.61,235.04,102.39z
			 M233.13,102.48c0-0.47-0.04-0.9-0.11-1.28c-0.07-0.38-0.2-0.71-0.38-0.99s-0.41-0.49-0.71-0.63c-0.29-0.15-0.66-0.22-1.1-0.22
			c-0.45,0-0.82,0.08-1.12,0.25c-0.3,0.17-0.54,0.39-0.72,0.67c-0.18,0.28-0.31,0.61-0.39,0.98s-0.11,0.77-0.11,1.19
			c0,0.49,0.04,0.93,0.11,1.31s0.2,0.72,0.37,1c0.17,0.28,0.41,0.49,0.7,0.63c0.29,0.14,0.66,0.22,1.11,0.22
			c0.45,0,0.82-0.08,1.12-0.25c0.3-0.17,0.54-0.39,0.72-0.68c0.18-0.29,0.31-0.62,0.39-1S233.13,102.91,233.13,102.48z"></path>
		<linearGradient id="SVGID_45_" gradientUnits="userSpaceOnUse" x1="178.4609" y1="102.4911" x2="381.8371" y2="102.4911">
			<stop offset="0" style="stop-color:#1B1464"></stop>
			<stop offset="1" style="stop-color:#667EEA"></stop>
		</linearGradient>
		<path class="st45" d="M245.93,105.6c0,0.12,0,0.21-0.01,0.29c-0.01,0.08-0.02,0.15-0.03,0.21c-0.01,0.06-0.03,0.11-0.06,0.15
			c-0.02,0.04-0.06,0.09-0.11,0.14c-0.05,0.05-0.15,0.12-0.29,0.2c-0.14,0.08-0.32,0.16-0.53,0.24s-0.45,0.14-0.72,0.19
			c-0.27,0.05-0.56,0.08-0.87,0.08c-0.61,0-1.16-0.09-1.66-0.28s-0.91-0.47-1.26-0.85c-0.35-0.37-0.61-0.84-0.79-1.4
			c-0.18-0.56-0.28-1.21-0.28-1.96c0-0.76,0.1-1.43,0.3-2.02c0.2-0.59,0.49-1.08,0.85-1.48s0.8-0.7,1.31-0.91s1.07-0.31,1.68-0.31
			c0.25,0,0.49,0.02,0.72,0.06c0.23,0.04,0.44,0.1,0.64,0.16c0.2,0.07,0.37,0.14,0.53,0.23c0.16,0.09,0.27,0.16,0.33,0.22
			c0.06,0.06,0.1,0.11,0.13,0.16c0.02,0.04,0.04,0.09,0.06,0.16c0.01,0.06,0.02,0.14,0.03,0.23c0.01,0.09,0.01,0.2,0.01,0.32
			c0,0.14,0,0.26-0.01,0.35c-0.01,0.1-0.03,0.17-0.05,0.23c-0.02,0.06-0.05,0.1-0.08,0.13c-0.03,0.03-0.07,0.04-0.11,0.04
			c-0.07,0-0.16-0.04-0.26-0.12c-0.11-0.08-0.24-0.17-0.41-0.27s-0.37-0.19-0.6-0.27s-0.51-0.12-0.83-0.12
			c-0.35,0-0.67,0.07-0.95,0.22c-0.28,0.14-0.52,0.35-0.71,0.62c-0.2,0.27-0.34,0.59-0.45,0.98c-0.1,0.38-0.15,0.81-0.15,1.29
			c0,0.52,0.05,0.98,0.16,1.36c0.11,0.38,0.26,0.7,0.46,0.95s0.44,0.43,0.72,0.56s0.6,0.18,0.96,0.18c0.32,0,0.6-0.04,0.84-0.11
			s0.44-0.16,0.6-0.25c0.17-0.09,0.31-0.17,0.41-0.25c0.11-0.07,0.19-0.11,0.25-0.11c0.05,0,0.08,0.01,0.11,0.03
			s0.05,0.06,0.07,0.11c0.02,0.06,0.03,0.13,0.04,0.23C245.93,105.31,245.93,105.44,245.93,105.6z"></path>
		<linearGradient id="SVGID_46_" gradientUnits="userSpaceOnUse" x1="178.4609" y1="102.4911" x2="381.8371" y2="102.4911">
			<stop offset="0" style="stop-color:#1B1464"></stop>
			<stop offset="1" style="stop-color:#667EEA"></stop>
		</linearGradient>
		<path class="st46" d="M255.17,102.39c0,0.74-0.09,1.4-0.28,1.99c-0.18,0.58-0.46,1.08-0.82,1.49c-0.36,0.41-0.81,0.72-1.35,0.93
			c-0.54,0.21-1.16,0.32-1.86,0.32c-0.69,0-1.3-0.09-1.82-0.27c-0.52-0.18-0.95-0.46-1.29-0.83c-0.35-0.37-0.6-0.85-0.78-1.42
			s-0.26-1.26-0.26-2.04c0-0.72,0.09-1.37,0.28-1.95c0.18-0.58,0.46-1.07,0.82-1.47s0.81-0.72,1.35-0.93s1.16-0.32,1.87-0.32
			c0.68,0,1.27,0.09,1.79,0.27s0.95,0.46,1.3,0.83c0.35,0.37,0.61,0.84,0.79,1.41S255.17,101.61,255.17,102.39z M253.26,102.48
			c0-0.47-0.04-0.9-0.11-1.28s-0.2-0.71-0.38-0.99c-0.18-0.27-0.41-0.49-0.71-0.63s-0.66-0.22-1.1-0.22c-0.45,0-0.82,0.08-1.12,0.25
			c-0.3,0.17-0.54,0.39-0.72,0.67c-0.18,0.28-0.31,0.61-0.39,0.98s-0.11,0.77-0.11,1.19c0,0.49,0.04,0.93,0.11,1.31
			c0.07,0.39,0.2,0.72,0.37,1c0.17,0.28,0.41,0.49,0.7,0.63c0.29,0.14,0.66,0.22,1.11,0.22c0.45,0,0.82-0.08,1.12-0.25
			s0.54-0.39,0.72-0.68c0.18-0.29,0.31-0.62,0.39-1S253.26,102.91,253.26,102.48z"></path>
		<linearGradient id="SVGID_47_" gradientUnits="userSpaceOnUse" x1="178.4609" y1="102.4911" x2="381.8371" y2="102.4911">
			<stop offset="0" style="stop-color:#1B1464"></stop>
			<stop offset="1" style="stop-color:#667EEA"></stop>
		</linearGradient>
		<path class="st47" d="M264.11,102.36c0,0.82-0.11,1.52-0.32,2.1s-0.52,1.06-0.92,1.43c-0.4,0.37-0.89,0.64-1.46,0.81
			c-0.57,0.17-1.25,0.26-2.05,0.26h-2.13c-0.15,0-0.28-0.04-0.38-0.13s-0.16-0.24-0.16-0.44V98.6c0-0.2,0.05-0.35,0.16-0.44
			s0.23-0.13,0.38-0.13h2.29c0.8,0,1.47,0.09,2.03,0.28s1.02,0.46,1.4,0.83s0.67,0.82,0.87,1.36
			C264.01,101.03,264.11,101.65,264.11,102.36z M262.23,102.42c0-0.42-0.05-0.82-0.15-1.18c-0.1-0.36-0.26-0.68-0.48-0.95
			c-0.22-0.27-0.5-0.48-0.84-0.62s-0.79-0.22-1.35-0.22h-0.92v6.07h0.95c0.5,0,0.92-0.06,1.26-0.19c0.34-0.13,0.62-0.32,0.85-0.58
			c0.23-0.26,0.4-0.58,0.51-0.97C262.18,103.39,262.23,102.94,262.23,102.42z"></path>
		<linearGradient id="SVGID_48_" gradientUnits="userSpaceOnUse" x1="178.4609" y1="102.4911" x2="381.8371" y2="102.4911">
			<stop offset="0" style="stop-color:#1B1464"></stop>
			<stop offset="1" style="stop-color:#667EEA"></stop>
		</linearGradient>
		<path class="st48" d="M270.89,106.25c0,0.13-0.01,0.24-0.02,0.33s-0.03,0.16-0.05,0.22s-0.05,0.1-0.09,0.12
			c-0.03,0.03-0.07,0.04-0.11,0.04h-4.49c-0.15,0-0.28-0.04-0.38-0.13s-0.16-0.24-0.16-0.44V98.6c0-0.2,0.05-0.35,0.16-0.44
			s0.23-0.13,0.38-0.13h4.46c0.04,0,0.08,0.01,0.11,0.03c0.03,0.02,0.06,0.06,0.08,0.12c0.02,0.06,0.04,0.13,0.05,0.22
			s0.02,0.2,0.02,0.34c0,0.13-0.01,0.24-0.02,0.33s-0.03,0.16-0.05,0.22c-0.02,0.06-0.05,0.1-0.08,0.12
			c-0.03,0.03-0.07,0.04-0.11,0.04h-3.19v2.18h2.7c0.04,0,0.08,0.01,0.11,0.04c0.03,0.03,0.06,0.06,0.09,0.12s0.04,0.12,0.05,0.21
			s0.02,0.2,0.02,0.33c0,0.13-0.01,0.24-0.02,0.33c-0.01,0.09-0.03,0.16-0.05,0.21c-0.02,0.05-0.05,0.09-0.09,0.11
			c-0.03,0.02-0.07,0.03-0.11,0.03h-2.7v2.52h3.22c0.04,0,0.08,0.01,0.11,0.04c0.03,0.03,0.06,0.07,0.09,0.12s0.04,0.13,0.05,0.22
			S270.89,106.11,270.89,106.25z"></path>
		<linearGradient id="SVGID_49_" gradientUnits="userSpaceOnUse" x1="178.4609" y1="102.4911" x2="381.8371" y2="102.4911">
			<stop offset="0" style="stop-color:#1B1464"></stop>
			<stop offset="1" style="stop-color:#667EEA"></stop>
		</linearGradient>
		<path class="st49" d="M279.3,103.57v3.14c0,0.05-0.01,0.09-0.04,0.12s-0.08,0.07-0.15,0.09c-0.07,0.02-0.16,0.04-0.28,0.06
			s-0.26,0.02-0.44,0.02c-0.18,0-0.33-0.01-0.44-0.02s-0.21-0.03-0.28-0.06c-0.07-0.02-0.12-0.05-0.15-0.09
			c-0.03-0.04-0.04-0.08-0.04-0.12v-3.14l-2.44-4.87c-0.09-0.17-0.14-0.3-0.17-0.4c-0.03-0.09-0.01-0.17,0.04-0.21
			c0.05-0.05,0.15-0.08,0.29-0.09c0.14-0.01,0.34-0.02,0.59-0.02c0.21,0,0.38,0,0.51,0.01c0.13,0.01,0.23,0.03,0.3,0.05
			c0.07,0.03,0.13,0.06,0.16,0.1c0.03,0.04,0.07,0.09,0.1,0.16l0.99,2.19c0.1,0.21,0.19,0.43,0.29,0.67
			c0.09,0.23,0.19,0.48,0.29,0.74h0.01c0.09-0.25,0.18-0.49,0.27-0.72s0.18-0.46,0.27-0.67l0.98-2.18c0.02-0.07,0.05-0.13,0.09-0.18
			c0.03-0.04,0.09-0.08,0.16-0.11c0.07-0.03,0.16-0.05,0.28-0.06s0.28-0.01,0.48-0.01c0.26,0,0.47,0.01,0.61,0.02
			c0.14,0.01,0.24,0.04,0.3,0.09c0.05,0.05,0.07,0.12,0.04,0.22c-0.03,0.1-0.08,0.23-0.17,0.39L279.3,103.57z"></path>
		<linearGradient id="SVGID_50_" gradientUnits="userSpaceOnUse" x1="178.4609" y1="102.4911" x2="381.8371" y2="102.4911">
			<stop offset="0" style="stop-color:#1B1464"></stop>
			<stop offset="1" style="stop-color:#667EEA"></stop>
		</linearGradient>
		<path class="st50" d="M290.53,102.39c0,0.74-0.09,1.4-0.28,1.99c-0.18,0.58-0.46,1.08-0.82,1.49c-0.36,0.41-0.81,0.72-1.35,0.93
			c-0.54,0.21-1.16,0.32-1.86,0.32c-0.69,0-1.3-0.09-1.82-0.27c-0.52-0.18-0.95-0.46-1.29-0.83c-0.35-0.37-0.6-0.85-0.78-1.42
			c-0.17-0.58-0.26-1.26-0.26-2.04c0-0.72,0.09-1.37,0.28-1.95c0.18-0.58,0.46-1.07,0.82-1.47c0.36-0.4,0.81-0.72,1.35-0.93
			s1.16-0.32,1.87-0.32c0.68,0,1.27,0.09,1.79,0.27s0.95,0.46,1.3,0.83c0.35,0.37,0.61,0.84,0.79,1.41S290.53,101.61,290.53,102.39z
			 M288.63,102.48c0-0.47-0.04-0.9-0.11-1.28s-0.2-0.71-0.38-0.99s-0.41-0.49-0.71-0.63c-0.29-0.15-0.66-0.22-1.1-0.22
			c-0.45,0-0.82,0.08-1.12,0.25c-0.3,0.17-0.54,0.39-0.72,0.67c-0.18,0.28-0.31,0.61-0.39,0.98c-0.08,0.37-0.11,0.77-0.11,1.19
			c0,0.49,0.04,0.93,0.11,1.31s0.2,0.72,0.37,1c0.17,0.28,0.41,0.49,0.7,0.63c0.29,0.14,0.66,0.22,1.11,0.22
			c0.45,0,0.82-0.08,1.12-0.25s0.54-0.39,0.72-0.68s0.31-0.62,0.39-1C288.59,103.32,288.63,102.91,288.63,102.48z"></path>
		<linearGradient id="SVGID_51_" gradientUnits="userSpaceOnUse" x1="178.4609" y1="102.5498" x2="381.8371" y2="102.5498">
			<stop offset="0" style="stop-color:#1B1464"></stop>
			<stop offset="1" style="stop-color:#667EEA"></stop>
		</linearGradient>
		<path class="st51" d="M299.35,103.63c0,0.55-0.08,1.04-0.24,1.47c-0.16,0.43-0.4,0.8-0.71,1.1c-0.31,0.3-0.7,0.53-1.16,0.68
			c-0.46,0.16-0.99,0.23-1.59,0.23c-0.56,0-1.07-0.07-1.51-0.21s-0.82-0.35-1.13-0.64s-0.54-0.64-0.71-1.07
			c-0.16-0.43-0.24-0.92-0.24-1.49v-5.43c0-0.05,0.01-0.09,0.04-0.12c0.03-0.04,0.08-0.07,0.15-0.09c0.07-0.02,0.16-0.04,0.28-0.06
			s0.26-0.02,0.44-0.02c0.17,0,0.32,0.01,0.43,0.02c0.11,0.01,0.21,0.03,0.28,0.06s0.12,0.05,0.15,0.09s0.04,0.08,0.04,0.12v5.27
			c0,0.35,0.04,0.66,0.13,0.92c0.09,0.26,0.21,0.48,0.38,0.65c0.16,0.17,0.36,0.3,0.59,0.38c0.23,0.09,0.48,0.13,0.76,0.13
			c0.29,0,0.54-0.04,0.77-0.13c0.23-0.09,0.42-0.22,0.57-0.38s0.28-0.37,0.36-0.62c0.09-0.25,0.13-0.53,0.13-0.84v-5.38
			c0-0.05,0.01-0.09,0.04-0.12c0.03-0.04,0.08-0.07,0.14-0.09c0.07-0.02,0.16-0.04,0.28-0.06c0.12-0.01,0.26-0.02,0.44-0.02
			s0.32,0.01,0.43,0.02c0.11,0.01,0.2,0.03,0.27,0.06c0.07,0.02,0.12,0.05,0.14,0.09c0.03,0.04,0.04,0.08,0.04,0.12V103.63z"></path>
		<linearGradient id="SVGID_52_" gradientUnits="userSpaceOnUse" x1="178.4609" y1="102.5118" x2="381.8371" y2="102.5118">
			<stop offset="0" style="stop-color:#1B1464"></stop>
			<stop offset="1" style="stop-color:#667EEA"></stop>
		</linearGradient>
		<path class="st52" d="M307.91,106.72c0,0.05-0.01,0.09-0.03,0.13s-0.06,0.06-0.13,0.09s-0.17,0.04-0.3,0.05s-0.32,0.01-0.55,0.01
			c-0.19,0-0.35,0-0.46-0.01s-0.21-0.03-0.27-0.05c-0.07-0.03-0.11-0.06-0.14-0.1c-0.03-0.04-0.05-0.09-0.07-0.14l-0.8-1.99
			c-0.1-0.23-0.19-0.43-0.28-0.6c-0.09-0.17-0.19-0.32-0.31-0.44c-0.11-0.12-0.24-0.21-0.39-0.27s-0.32-0.09-0.51-0.09h-0.57v3.4
			c0,0.05-0.01,0.09-0.04,0.12c-0.03,0.04-0.08,0.07-0.15,0.09c-0.07,0.02-0.16,0.04-0.28,0.06c-0.11,0.01-0.26,0.02-0.44,0.02
			c-0.17,0-0.32-0.01-0.44-0.02c-0.12-0.01-0.21-0.03-0.28-0.06s-0.12-0.05-0.14-0.09c-0.03-0.04-0.04-0.08-0.04-0.12V98.6
			c0-0.2,0.05-0.35,0.16-0.44s0.23-0.13,0.38-0.13h2.31c0.23,0,0.43,0,0.58,0.01c0.15,0.01,0.29,0.02,0.41,0.03
			c0.36,0.05,0.68,0.14,0.97,0.26c0.29,0.12,0.53,0.29,0.73,0.49c0.2,0.2,0.35,0.44,0.46,0.71c0.11,0.27,0.16,0.59,0.16,0.94
			c0,0.3-0.04,0.57-0.11,0.82s-0.19,0.47-0.33,0.66c-0.15,0.19-0.33,0.36-0.55,0.5c-0.22,0.14-0.46,0.26-0.74,0.35
			c0.13,0.06,0.26,0.14,0.38,0.23c0.12,0.09,0.23,0.2,0.33,0.33s0.2,0.28,0.29,0.45c0.09,0.17,0.18,0.36,0.27,0.57l0.75,1.76
			c0.07,0.17,0.12,0.3,0.14,0.38C307.9,106.61,307.91,106.68,307.91,106.72z M305.57,100.66c0-0.29-0.07-0.54-0.2-0.75
			s-0.35-0.35-0.66-0.43c-0.09-0.02-0.2-0.04-0.31-0.06c-0.12-0.01-0.28-0.02-0.49-0.02h-0.81v2.53h0.92c0.26,0,0.48-0.03,0.68-0.09
			c0.19-0.06,0.35-0.15,0.48-0.26c0.13-0.11,0.23-0.25,0.29-0.4C305.54,101.03,305.57,100.86,305.57,100.66z"></path>
		<linearGradient id="SVGID_53_" gradientUnits="userSpaceOnUse" x1="178.4609" y1="102.4911" x2="381.8371" y2="102.4911">
			<stop offset="0" style="stop-color:#1B1464"></stop>
			<stop offset="1" style="stop-color:#667EEA"></stop>
		</linearGradient>
		<path class="st53" d="M321.84,106.49c-0.03,0.11-0.07,0.2-0.11,0.27s-0.12,0.12-0.22,0.15s-0.22,0.06-0.37,0.07
			c-0.15,0.01-0.35,0.02-0.58,0.02c-0.26,0-0.47-0.01-0.63-0.02c-0.16-0.01-0.28-0.03-0.38-0.07s-0.16-0.09-0.2-0.15
			c-0.04-0.07-0.07-0.16-0.1-0.27l-1.43-5.66h-0.01l-1.35,5.66c-0.02,0.11-0.06,0.19-0.1,0.26c-0.04,0.07-0.11,0.12-0.2,0.16
			c-0.09,0.04-0.21,0.06-0.37,0.07c-0.15,0.01-0.36,0.02-0.61,0.02c-0.27,0-0.48-0.01-0.64-0.02c-0.16-0.01-0.28-0.03-0.38-0.07
			s-0.16-0.09-0.2-0.15s-0.08-0.16-0.1-0.27l-2.03-7.79c-0.04-0.17-0.06-0.3-0.07-0.39c0-0.09,0.02-0.17,0.08-0.22
			c0.06-0.05,0.15-0.08,0.28-0.09c0.13-0.01,0.31-0.02,0.55-0.02c0.22,0,0.39,0,0.51,0.01s0.22,0.02,0.29,0.05
			c0.06,0.03,0.11,0.06,0.13,0.11s0.04,0.12,0.06,0.2l1.57,6.84h0.01l1.63-6.79c0.02-0.09,0.04-0.16,0.07-0.21s0.08-0.1,0.15-0.13
			c0.07-0.03,0.17-0.05,0.29-0.06c0.12-0.01,0.29-0.02,0.5-0.02c0.22,0,0.4,0,0.53,0.01c0.13,0.01,0.23,0.03,0.3,0.06
			c0.07,0.03,0.12,0.07,0.16,0.13c0.03,0.06,0.06,0.13,0.08,0.22l1.68,6.79h0.01l1.57-6.82c0.01-0.07,0.03-0.14,0.06-0.19
			c0.02-0.05,0.07-0.09,0.13-0.12c0.06-0.03,0.16-0.05,0.28-0.06c0.12-0.01,0.29-0.02,0.5-0.02c0.2,0,0.36,0.01,0.47,0.02
			c0.11,0.01,0.19,0.04,0.24,0.09c0.05,0.05,0.07,0.13,0.07,0.22s-0.03,0.23-0.07,0.4L321.84,106.49z"></path>
		<linearGradient id="SVGID_54_" gradientUnits="userSpaceOnUse" x1="178.4609" y1="102.4911" x2="381.8371" y2="102.4911">
			<stop offset="0" style="stop-color:#1B1464"></stop>
			<stop offset="1" style="stop-color:#667EEA"></stop>
		</linearGradient>
		<path class="st54" d="M331.9,106.28c0.06,0.17,0.09,0.3,0.1,0.39c0.01,0.1,0,0.17-0.06,0.22c-0.05,0.05-0.14,0.08-0.27,0.09
			c-0.13,0.01-0.31,0.02-0.53,0.02c-0.23,0-0.42,0-0.55-0.01c-0.13-0.01-0.23-0.02-0.3-0.04c-0.07-0.02-0.12-0.05-0.14-0.09
			c-0.03-0.04-0.05-0.09-0.07-0.14l-0.6-1.79h-3.35l-0.57,1.75c-0.02,0.06-0.04,0.12-0.07,0.16c-0.03,0.04-0.08,0.08-0.14,0.1
			c-0.07,0.03-0.16,0.04-0.28,0.05s-0.28,0.01-0.48,0.01c-0.21,0-0.38-0.01-0.5-0.02c-0.12-0.01-0.2-0.05-0.25-0.1
			c-0.05-0.05-0.06-0.13-0.05-0.22c0.01-0.1,0.05-0.23,0.1-0.39l2.75-7.92c0.03-0.08,0.06-0.14,0.1-0.19s0.1-0.09,0.18-0.11
			c0.08-0.03,0.19-0.04,0.33-0.05c0.14-0.01,0.33-0.01,0.57-0.01c0.27,0,0.49,0,0.65,0.01s0.29,0.02,0.38,0.05
			c0.09,0.03,0.15,0.06,0.19,0.11c0.04,0.05,0.07,0.12,0.1,0.21L331.9,106.28z M327.8,99.73L327.8,99.73l-1.27,3.8h2.53L327.8,99.73
			z"></path>
		<linearGradient id="SVGID_55_" gradientUnits="userSpaceOnUse" x1="178.4609" y1="102.4911" x2="381.8371" y2="102.4911">
			<stop offset="0" style="stop-color:#1B1464"></stop>
			<stop offset="1" style="stop-color:#667EEA"></stop>
		</linearGradient>
		<path class="st55" d="M335.61,103.57v3.14c0,0.05-0.01,0.09-0.04,0.12c-0.03,0.04-0.08,0.07-0.15,0.09
			c-0.07,0.02-0.16,0.04-0.28,0.06c-0.12,0.01-0.26,0.02-0.44,0.02c-0.18,0-0.33-0.01-0.44-0.02c-0.11-0.01-0.21-0.03-0.28-0.06
			s-0.12-0.05-0.15-0.09c-0.03-0.04-0.04-0.08-0.04-0.12v-3.14l-2.44-4.87c-0.09-0.17-0.14-0.3-0.17-0.4s-0.01-0.17,0.04-0.21
			c0.05-0.05,0.15-0.08,0.29-0.09c0.14-0.01,0.34-0.02,0.59-0.02c0.21,0,0.38,0,0.51,0.01c0.13,0.01,0.23,0.03,0.3,0.05
			c0.07,0.03,0.13,0.06,0.16,0.1c0.03,0.04,0.07,0.09,0.1,0.16l0.99,2.19c0.1,0.21,0.19,0.43,0.29,0.67
			c0.09,0.23,0.19,0.48,0.29,0.74h0.01c0.09-0.25,0.18-0.49,0.27-0.72s0.18-0.46,0.27-0.67l0.98-2.18c0.02-0.07,0.05-0.13,0.09-0.18
			c0.03-0.04,0.09-0.08,0.16-0.11c0.07-0.03,0.16-0.05,0.28-0.06c0.12-0.01,0.28-0.01,0.48-0.01c0.26,0,0.47,0.01,0.61,0.02
			c0.14,0.01,0.24,0.04,0.3,0.09c0.05,0.05,0.07,0.12,0.04,0.22c-0.03,0.1-0.08,0.23-0.17,0.39L335.61,103.57z"></path>
	</g>
</g>
<g id="DESIGNED_BY_FREEPIK">
</g>
</svg>